<?xml version="1.0" encoding="utf-8"?><svg xmlns="http://www.w3.org/2000/svg" xmlns:xlink="http://www.w3.org/1999/xlink"><symbol id="svg--icon-download" viewBox="0 0 32 30.7"><style>.ast0,.ast1{fill:none;stroke:#000;stroke-linecap:round;stroke-miterlimit:10}.ast1{stroke-linejoin:round}</style><path class="ast0" d="M16 12.8v17"/><path class="ast1" d="M20.5 25.8l-4.6 4.4-4.4-4.4m0-6.5h-7s-4-.6-4-5.5 5-6 5-6-.4-2.3 1-3c2.6-1.4 4 1 4 1s3.1-6.9 9-5 5 8 5 8 7.1-.5 7 5.3c-.1 5.7-5 5.2-5 5.2h-6"/></symbol><symbol viewBox="0 0 43 41" shape-rendering="geometricPrecision" text-rendering="geometricPrecision" image-rendering="optimizeQuality" fill-rule="evenodd" clip-rule="evenodd" id="svg--icon_1"><path class="bfil0" d="M42 33c-2-1-5-2-8-2V18l-2-1v-4l-3-1V8l-2-1V4c0-1-1-1-1-1l-4-2h-1l-5 2v4l-2 1h-1v4l-2 1h-1v4l-1 1s-1 0-1 1v12c-2 0-5 1-8 2 0 1 0 1 1 1 7-2 13-3 21-3 7 0 13 1 20 3 0 0 1 0 1-1h-1zm-9-14v12h-1V19h1zm-2-5v16h-2V13l2 1zm-3-6v22h-1V8h1zm-2 22h-4V3l4 1v26zM21 3v27h-4V4l4-1zm-5 5v22h-2V8h2zm-3 5v17h-2V14l2-1zm-4 6h1v12H9V19z"/><path class="bfil1" d="M13 31c1 0 2 1 3 2 0 0 1 1 1 2s0 2-1 3c0 1-1 2-2 2v1c2-1 4-3 3-6 0-2-1-3-2-4h-2zm7 0c1 0 2 0 2 1 1 0 2 1 2 2 1 2 2 4 1 7h1c0-3 0-5-1-8-1-1-2-2-3-2h-2zM18 5l2-1v1h-2zm2 22v1l-2 1v-1l2-1zm0-2v1h-2l2-1zm0-2l-2 1v-1h2zm0-3v1l-2 1v-1l2-1zm0-7v1l-2 1v-1l2-1zm0 5v1h-2l2-1zm0-2l-2 1v-1h2zm-2-4l2-1v1h-2zm0-2V9h2l-2 1zm0-2V7l2-1v1l-2 1zm3 29v-2h-1c1 1 1 1 1 2zm0 2zm-1-6l-2-2v1c1 0 1 1 1 1h1zM35 8h2c1 0 2 0 2 1 1 0 2 1 2 2s-1 1-1 1h-7c-1 0-1 0-1-1 0-2 1-3 2-3h1zm-2 4h7v-1c0-1 0-2-1-2 0-1-1-1-2-1s-2 0-2 1h-1c-1 0-2 1-2 2s0 1 1 1zM6 1c1-1 2-1 3-1s3 1 3 2c2 0 2 1 2 3v1H3L2 5V4c0-2 2-3 3-3h1zM3 5h11c0-2-1-3-2-3 0-1-2-2-3-2S7 1 7 2C6 1 6 1 5 1S2 3 2 4c0 0 0 1 1 1zm22 0l-2-1h-1l1 1h2zm-2 22h-1c0 1 0 1 1 1l2 1v-1l-2-1zm0-2h-1s0 1 1 1h2l-2-1zm0-2h-1 1l2 1v-1h-2zm0-3h-1c0 1 0 1 1 1l2 1v-1l-2-1zm0-7h-1c0 1 0 1 1 1l2 1v-1l-2-1zm0 5h-1s0 1 1 1h2l-2-1zm0-2h-1 1l2 1v-1h-2zm2-4l-2-1h-1l1 1h2zm0-2V9h-3 1l2 1zm0-2V7l-2-1h-1c0 1 0 1 1 1l2 1zm2 20l1 1v-1h-1zm0-2h1l-1-1v1zm0-2h1v-1h-1v1zm0-3l1 1v-1h-1zm0-7l1 1v-1h-1zm0 5h1l-1-1v1zm0-2h1v-1h-1v1zm1-5l-1-1v1h1zm0-2V9h-1v1h1zm1 19l1 1c1 0 1-1 1-1l-2-1v1zm0-2h2l-2-1v1zm0-2h2v-1h-2v1zm0-3l1 1c1 0 1-1 1-1l-2-1v1zm0-7h1v1c1 0 1-1 1-1l-2-1v1zm0 5h2l-2-1v1zm0-3l1 1h1v-1h-2zM16 28l-1 1v-1h1zm0-2h-1l1-1v1zm0-2h-1v-1h1v1zm0-3l-1 1v-1h1zm0-7l-1 1v-1h1zm0 5h-1l1-1v1zm0-2h-1v-1h1v1zm-1-5l1-1v1h-1zm0-2V9h1v1h-1zm-2 19l-1 1v-1l1-1v1zm0-2h-1l1-1v1zm0-2h-1v-1h1v1zm0-3l-1 1v-1l1-1v1zm0-7h-1l1-1v1zm0 5h-1l1-1v1zm0-3l-1 1v-1h1z"/></symbol><symbol viewBox="0 0 50 50" shape-rendering="geometricPrecision" text-rendering="geometricPrecision" image-rendering="optimizeQuality" fill-rule="evenodd" clip-rule="evenodd" id="svg--icon_2"><defs><style>.cfil0{fill:#cdb66f;fill-rule:nonzero}</style></defs><g id="cСлой_x0020_1"><path class="cfil0" d="M44 6c-4-4-9-6-14-6S19 2 15 6L0 21v2l9 9h2l15-15c2-2 6-2 8 0s2 5 0 7L19 39c-1 1-1 2 0 2l9 9h1l15-15c8-8 8-21 0-29zM10 29l-7-7 3-3 7 7-3 3zm14-14L14 25l-7-7L17 8c3-4 8-6 13-6 4 0 9 2 13 6l-8 7c-3-3-8-3-11 0zm5 33l-8-8 4-3 7 7-3 4zm14-15L33 44l-8-8 10-10c3-3 3-7 1-10l7-8c4 3 5 8 5 13 0 4-2 9-5 12z"/><path class="cfil0" d="M14 34h-2l-7 7c0 1-1 1 0 2h5l-5 5c-1 1-1 2 0 2h2l7-7v-1c0-1-1-1-1-1H9l5-5v-2z"/></g></symbol><symbol viewBox="0 0 60 60" shape-rendering="geometricPrecision" text-rendering="geometricPrecision" image-rendering="optimizeQuality" fill-rule="evenodd" clip-rule="evenodd" id="svg--icon_3"><defs><style>.dfil0{fill:#cdb66f;fill-rule:nonzero}</style></defs><g id="dСлой_x0020_1"><g id="drussia-ruble.eps"><path class="dfil0" d="M30 0C14 0 0 14 0 30c0 17 14 30 30 30 17 0 30-13 30-30C60 14 47 0 30 0zm0 57C15 57 3 45 3 30S15 3 30 3s27 12 27 27-12 27-27 27z"/><path class="dfil0" d="M30 5C16 5 5 16 5 30s11 25 25 25 25-11 25-25S44 5 30 5zm0 49C17 54 6 43 6 30S17 6 30 6s24 11 24 24-11 24-24 24z"/><path class="dfil0" d="M28 37h-2v3h-3v2h8v-2h-3zm6-21H23v3h3v9h-3v4h11c4 0 8-4 8-8 0-5-4-8-8-8zm0 12h-6v-9h6c2 0 4 2 4 5 0 2-2 4-4 4zm-11 8h14v-3H23z"/></g></g></symbol><symbol viewBox="0 0 70 70" shape-rendering="geometricPrecision" text-rendering="geometricPrecision" image-rendering="optimizeQuality" fill-rule="evenodd" clip-rule="evenodd" id="svg--icon_4"><defs><style>.efil0{fill:#cdb66f}</style></defs><path class="efil0" d="M29 70h41c0-7-1-11-8-15-1-1-2-2-3-2v-1c1-1 2-2 3-2v-1s0-1-2-1c-1-1-5-2-6-3-2-1-3 0-3 0l-2 2c-1 2-3 5-6 9-2 3-5 7-6 9s-1 3-1 3h-1s0-1-1-3c-2-2-4-6-6-9-3-4-5-7-6-9l-2-2c-1 0-1-1-3 0s-5 2-7 3c-1 0-1 1-1 1v1c1 0 1 1 3 2v1h-1c-1 0-2 1-3 2-6 4-8 8-8 15h29zM18 13c1-1 1-2 2-3 1-2 2-4 3-5s1-2 2-3 2-2 3-2h4c1 0 1 1 2 1 0 1 1 1 1 1h1c1 0 2-1 3-1 0-1 1-1 2-1s2 0 3 1c1 0 1 1 2 2s2 3 3 5c1 1 1 2 2 3 0 1 1 2 1 2 0 1 0 1 1 1s3 0 4 1c2 0 4 1 5 2 1 0 2 1 2 1 1 1 1 2 0 3s-2 2-4 2c-2 1-4 1-6 2h1c0 1 0 1 1 2v4c0 1 0 3-1 4 0 1 0 2-1 3h-2c0 1 0 1-1 1 0 1 0 2-1 3 0 1-1 3-2 4l-5 5c-2 1-3 2-5 2h-6c-2 0-3-1-4-2-2-1-3-2-4-4-1-1-2-3-3-4-1-2-2-3-2-3 0-1-1-1-1-2h-1l-2-2v-4c-1-1-1-2 0-3v-2l2-2h-2c-2 0-4-1-5-1-2-1-3-2-4-3 0-1-1-2 0-2 0-1 0-2 1-2 2-1 3-1 5-2 1 0 3-1 4-1s2 0 2-1zm32 12c-1 0-1 1-2 1l1 1c0 4-1 8-5 9-3 0-7-1-8-4-1 0-1-1-1-1v1c-1 3-5 4-8 4-5-1-6-5-5-9v-1h-2l-1 1c-1 1-1 1-1 2-1 0-1 1-1 2v2c0 1 1 2 1 2 1 1 1 1 2 1h1c0 1 0 1 1 3 0 1 1 3 2 4 1 2 2 3 3 4s2 2 3 2c0 1 1 1 2 1h5c1 0 2 0 4-1l3-3c1-1 2-2 3-4 1-1 2-2 2-3s1-2 1-3v-1h2l1-1c0-1 1-2 1-3 0 0 0-1-1-2 0-1-1-2-2-2 0-1-1-1-1-2zm-15 1zm-18-9c1 0 1 1 1 2h2s0-1 1-2v-2s1 0 1 1c1 0 2 0 3 1 2 0 4 1 6 1h7c3 0 5-1 7-1 2-1 3-1 4-2h1v4h3v-2h2c1 0 2 0 3 1 1 0 2 0 3 1 0 0 1 0 0 1 0 0-1 1-2 1-1 1-3 1-6 2-2 0-5 1-9 1H29c-4 0-7 0-9-1-2 0-4 0-6-1-1 0-3-1-4-1s-1-1-1-1v-1s1-1 2-1 3-1 4-1h2zm5-6s0 1 1 1c0 1 1 1 2 2 1 0 2 0 4 1h9c3 0 4 0 6-1 1 0 2-1 3-1l1-1c0-1 0-2-1-3 0-1-1-2-2-3l-2-2c-1-1-1-1-2-1h-2l-2 2-1 1h-2l-1-1c0-1-1-1-1-1-1-1-1-1-2-1h-2c0 1-1 1-2 2s-2 2-2 3c-1 1-2 2-2 3zm23 17c1 1 1 2 1 3 0 3-8 2-9 0v-4h8v1zm-20 0v3c0 3 7 2 8 0 0-1 1-2 1-2v-2h-8c-1 0-1 0-1 1zm32 27h1c5 3 9 6 10 13H40h1c2-1 4-3 6-4l2-2c1-1 1-2 1-3h2s1 0 2-2c1 0 2-1 3-2zM31 68H3c0-7 4-10 9-13 1 0 2 0 2-1 1 1 2 3 3 3 1 2 1 2 2 2h2v3c1 0 1 1 3 2s4 3 6 4h1zM20 50c-2-2-2-2-3-2s-2 1-3 1l-1 1c0 1 1 1 2 2l3 3c1 1 2 1 3 1s1 1 2 1v1c0 1 1 1 1 2s1 1 2 2 2 2 3 2c1 1 1 1 1 0 0 0 0-1-2-4-2-2-6-7-8-10zm30 0c2-2 3-2 4-2s2 1 3 1l1 1-2 2c-1 1-2 2-4 3-1 1-1 1-2 1s-2 1-2 1l-1 1v2l-2 2c-1 1-2 2-3 2-1 1-1 1-1 0 0 0 0-1 2-4 2-2 6-7 7-10z" id="eСлой_x0020_1"/></symbol><symbol viewBox="0 0 63 56" shape-rendering="geometricPrecision" text-rendering="geometricPrecision" image-rendering="optimizeQuality" fill-rule="evenodd" clip-rule="evenodd" id="svg--icon_5"><defs><style>.ffil0,.ffil1{fill:#2b2a29}.ffil1{fill-rule:nonzero}</style></defs><g id="fСлой_x0020_1"><g id="f_378890192"><path class="ffil0" d="M28 0c4 0 8 1 12 3l-3 1c-3-1-6-2-9-2C14 2 2 14 2 28s12 26 26 26c12 0 23-9 25-21h1l2-2c-2 14-14 25-28 25C12 56 0 43 0 28 0 12 12 0 28 0z"/><path class="ffil1" d="M51 20v-1h-1L33 9l10-6 16 9-7 5v1c0 1 1 1 2 1l8-6c1 0 1 0 1-1 0 0-1 0-1-1L44 1h-2L30 8l-6 4-11 8c-1 0-1 0-1 1l1 1 18 10h1l9-5s1-1 0-2h-1l-8 5-17-9 10-7 18 10v14c0 1 0 1 1 1v-1l6-3 1-1V20zM40 39l-8 5-18-11c-1 0-2 0-2 1 0 0 0 1 1 1l18 11h1l9-5c0-1 1-1 0-2 0 0-1-1-1 0zm21-14l-9 6v1c0 1 1 1 1 1h1l8-6c1 0 1-1 1-1-1-1-2-1-2-1zm-21 9l-8 5-18-10h-2c0 1 0 2 1 2l18 10c0 1 1 1 1 1v-1l9-5s1-1 0-2h-1zm21-13l-9 5v2h2l8-5c1-1 1-1 1-2-1-1-2-1-2 0zm-21 8l-8 5-18-10c-1 0-2 0-2 1 0 0 0 1 1 1l18 11h1l9-6s1-1 0-1c0-1-1-1-1-1zm21-13l-9 5v2l1 1s0-1 1-1l8-5c1 0 1-1 1-2h-2zM45 35V24c0-1 0-1-1-1L27 13l4-2 16 9-1 1c-1 0-1 1 0 1 0 1 0 1 1 1l1-1v11l-3 2z"/></g></g></symbol><symbol viewBox="0 0 56 56" shape-rendering="geometricPrecision" text-rendering="geometricPrecision" image-rendering="optimizeQuality" fill-rule="evenodd" clip-rule="evenodd" id="svg--icon_6"><defs><style>.gfil1{fill:#2b2a29}.gfil0{fill:#000;fill-rule:nonzero}</style></defs><g id="gСлой_x0020_1"><g id="g_378888752"><path class="gfil0" d="M38 23c0 1 0 2 1 3 0 1 1 1 1 1l1 1s0 1 1 1c0 1 1 1 2 1 0 0 1 0 1-1l8-7c1-1 1-3 0-4l-1-1c-1 0-1 0-1-1l-1-1c-1-1-2-1-3 0l-8-8V4c-1-1-1-1-2-1 0 0 0-1-1-1V1c-1-1-3-1-4 0l-7 7c-1 1-1 3-1 4 1 0 1 0 2 1 0 0 1 0 1 1v1h3l3 2-21 22c-1 0-1 1-1 2 0 0 0 1 1 1 0 1 1 1 1 1 1 0 2 0 2-1l22-21 1 2zm5-7h1v-1l-5-5c-1-1-1-1-1 0-1 0-1 0 0 0l5 6zm13 27v-1l-2-3v-2H34v2l-3 3v4h25v-3zm-21-5h17-17zm0 2h18l1 2H33l2-2zm-3 5v-2h23v2H32zm20-26v2l-8 7c0 1-1 1-1 0h-1v-1l9-9v1h1zm-3-3v1h1l-9 9h-1v-1c-1 0-1-1 0-1l7-8h2zm-24-5c0-1 0-1 1-2l7-7c0-1 1-1 1-1s1 0 1 1v1l-8 9-1-1h-1zm3 3v-1l8-9h2v2l-8 8h-2zm10-6l8 8-3 3-4 3-8-8 7-6zM15 42h-3v-3l22-21 2 2-21 22z"/><path class="gfil1" d="M26 5h2l-2 2C13 7 2 18 2 31s11 23 24 23c7 0 13-3 17-8h3c-5 6-12 10-20 10C11 56 0 45 0 31 0 16 11 5 26 5z"/></g></g></symbol><symbol viewBox="0 0 52 52" shape-rendering="geometricPrecision" text-rendering="geometricPrecision" image-rendering="optimizeQuality" fill-rule="evenodd" clip-rule="evenodd" id="svg--icon_7"><defs><style>.hfil1{fill:#fefefe}.hfil0{fill:#03a1c9}</style></defs><g id="hСлой_x0020_1"><g id="h_378887168"><circle class="hfil0" cx="26" cy="26" r="26"/><path class="hfil1" d="M42 22l-4-9c-2 1-4 3-6 4-3 1-5 1-8 1H6v8l4 9h34v-7l-3-5 1-1zM30 34h13-13zM7 21l3 7-3-6v-1zm4-2h10l1 2c-1 0-3 0-3 2s4 2 5 2l1 2h-9c0-2-3-3-5-3h-1l-2-3c2 0 3-1 3-2zm13 5c-3 0-4-1-4-1s1-1 3-1l1 2zm1 7H11v-1h14v1zm-14-4l-1-1h1c2 0 3 0 4 1h-4zm14 2H11v-1h14v1zm-14 3h14-14zm16-4h2v6h-2v-6zm3 4h13-13zm0-1v-1h13v1H30zm0-2v-1h13v1H30zm13-2h-7c2-1 3-2 5-3l2 3zm-4-4s1-2 2-3l1 2c-1 0-2 1-3 1zm-1-9v1c-1 0-2 1-3 1 1-1 2-2 3-2zm-6 3c1 0 1 0 2-1 0 1 1 1 1 1 1 0 3-1 4-1l1 3c-2 2-2 4-2 5-1 1-1 1-2 1-2 1-4 2-6 2l-1-2c2-1 3-2 3-2 0-2-3-2-5-3l-1-1c2 0 4-1 6-2zm-4 5c2 0 2 1 3 1-1 0-1 0-3 1v-2zm-3-3l4 8h-3l-3-8h2zm-15 0c-1 0-1 1-3 1v-1h3zm-3 6l3 6v1l-3-7zm4 9h14-14z"/></g></g></symbol><symbol viewBox="0 0 62 62" shape-rendering="geometricPrecision" text-rendering="geometricPrecision" image-rendering="optimizeQuality" fill-rule="evenodd" clip-rule="evenodd" id="svg--icon_8"><defs><style>.ifil0{fill:#03a1c9}.ifil1{fill:#fefefe;fill-rule:nonzero}</style></defs><g id="iСлой_x0020_1"><g id="i_378568312"><circle class="ifil0" cx="31" cy="31" r="31"/><path class="ifil1" d="M51 19h-1l-3 1c-1 0-2 0-3 1-1 2-2 4-4 5l-1 1-5 5c-1 1-2 1-3 0v-2l4-4c1-1 2-3 1-5-1-1-2-2-4-2-1 1-2 1-3 2l-2 2c0 1-1 1-1 2v2l-2 2v-7l8-8c1-1 1-1 2-1h9c1 0 1 0 1-1H34c-1 0-2 0-3 1l-8 8v9L12 41v1l9 9h1l18-19-2-3 2-1s0-1 1-1c2-2 3-3 4-5 1-1 1-1 2-1l3-1c1 0 1 0 1-1zM31 29c-1 1-1 1-1 2s0 1 1 2c0 0 1 1 2 1 0 0 1 0 1-1l2-1h1L22 47l-7-6 15-15 2 2-1 1zm-1-8h2c1 0 2 0 3 1s0 3-1 3v1l-3-4h-1l-1 2v-2l1-1zm-3 4l1-1v-1 2l-1 1v-1zm12 7L21 50l-8-9 18-17 2 2v1l-2-2h-1L14 41v1l7 6s0 1 1 1v-1l16-15v-1l-1-1v-1l2 2z"/><path class="ifil1" d="M28 35c-2-2-4-2-5-1s0 3 1 4 2 2 3 2 1 0 2-1v-2c0-1 0-1-1-2zm0 4s-2 0-3-1-1-3-1-3 0-1 1-1l2 2c1 0 1 1 1 1v2z"/></g></g></symbol><symbol viewBox="0 0 81 81" shape-rendering="geometricPrecision" text-rendering="geometricPrecision" image-rendering="optimizeQuality" fill-rule="evenodd" clip-rule="evenodd" id="svg--icon_9"><defs><style>.jfil0{fill:#03a1c9}.jfil1{fill:#fefefe;fill-rule:nonzero}</style></defs><g id="jСлой_x0020_1"><g id="j_378547952"><circle class="jfil0" cx="40" cy="40" r="40"/><path class="jfil1" d="M45 23v-3h1v-2c0-2-1-3-3-3h-4c-2 0-4 1-4 3v2h2v3c-3 0-6 2-9 4l-1-2h-2l-2 2v2l1 1c-2 4-4 8-4 13 0 12 9 21 21 21 11 0 21-9 21-21 0-10-7-18-17-20zm-8-5c0-1 1-2 2-2h4c1 0 2 1 2 2v1h-8v-1zm1 2h6v3c-1-1-2-1-3-1s-2 0-3 1v-3zm-14 8l2-2 1 1c0 1-1 2-2 2l-1-1zm17 35c-11 0-20-9-20-20s9-19 20-19 19 8 19 19-8 20-19 20z"/><path class="jfil1" d="M41 27c-9 0-16 7-16 16s7 16 16 16 16-7 16-16-7-16-16-16zm0 31c-8 0-15-7-15-15s7-15 15-15 15 7 15 15-7 15-15 15z"/><path class="jfil1" d="M41 35v-1s-1 0-1 1l-2 8c0 1 2 3 3 3s2-2 2-3l-2-8zm0 3v3h-1l1-3zm0 6c-1 0-1 0-1-1 0 0 0-1 1-1l1 1c0 1-1 1-1 1zm0 9c-1 0-1 1-1 1v3h2v-3l-1-1zm0-20s1 0 1-1v-2c0-1-1-1-1-1-1 0-1 0-1 1v2c0 1 0 1 1 1zm-8 17l-2 2v1h1l2-2v-1h-1zm16-14l2-2v-1h-1l-2 2c0 1 0 1 1 1zm-19 6h-3v2h3s1 0 1-1l-1-1zm24 0h-2c-1 0-1 1-1 1 0 1 0 1 1 1h2c1 0 1 0 1-1 0 0 0-1-1-1zm-21-6s1 0 1-1l-2-2h-1v1l2 2zm16 14h-1v1l2 2h1v-1l-2-2z"/></g></g></symbol></svg>