<?xml version="1.0" encoding="UTF-8"?>
<!DOCTYPE svg PUBLIC "-//W3C//DTD SVG 1.1//EN" "http://www.w3.org/Graphics/SVG/1.1/DTD/svg11.dtd">
<!-- Creator: CorelDRAW X6 -->
<svg xmlns="http://www.w3.org/2000/svg" xml:space="preserve" width="10.1864mm" height="10.1864mm" version="1.1" style="shape-rendering:geometricPrecision; text-rendering:geometricPrecision; image-rendering:optimizeQuality; fill-rule:evenodd; clip-rule:evenodd"
viewBox="0 0 52 52"
 xmlns:xlink="http://www.w3.org/1999/xlink">
 <defs>
  <style type="text/css">
   <![CDATA[
    .fil1 {fill:#FEFEFE}
    .fil0 {fill:#03A1C9}
   ]]>
  </style>
 </defs>
 <g id="Слой_x0020_1">
  <metadata id="CorelCorpID_0Corel-Layer"/>
  <g id="_378887168">
   <circle class="fil0" cx="26" cy="26" r="26"/>
   <path class="fil1" d="M42 22l-4 -9c-2,1 -4,3 -6,4 -3,1 -5,1 -8,1l-18 0 0 8 4 9 34 0 0 -7 -3 -5 0 0c1,-1 1,-1 1,-1zm-12 12l0 0 13 0 0 0 -13 0zm-23 -13l3 7 0 0 -3 -6 0 -1zm4 -2l10 0 1 2c-1,0 -3,0 -3,2 0,2 4,2 5,2l1 2 -9 0c0,-2 -3,-3 -5,-3 -1,0 -1,0 -1,0l-2 -3c2,0 3,-1 3,-2zm13 5c-3,0 -4,-1 -4,-1 0,0 1,-1 3,-1l1 2zm1 7l-14 0 0 -1 14 0 0 1zm-14 -4l-1 -1c0,0 0,0 1,0 2,0 3,0 4,1l-4 0zm14 2l-14 0 0 -1 14 0 0 1zm-14 3l14 0 0 0 -14 0 0 0zm16 -4c0,0 2,0 2,0l0 6 -2 0 0 -6zm3 4l13 0 0 0 -13 0 0 0zm0 -1l0 -1 13 0 0 1 -13 0zm0 -2l0 -1 13 0 0 1 -13 0zm13 -2l-7 0c0,0 0,0 0,0 2,-1 3,-2 5,-3l2 3zm-4 -4c0,0 1,-2 2,-3l1 2c-1,0 -2,1 -3,1zm-1 -9l0 1c-1,0 -2,1 -3,1 1,-1 2,-2 3,-2zm-6 3c1,0 1,0 2,-1 0,1 1,1 1,1 1,0 3,-1 4,-1l1 3c-2,2 -2,4 -2,5 -1,1 -1,1 -2,1 -2,1 -4,2 -6,2l-1 -2c2,-1 3,-2 3,-2 0,-2 -3,-2 -5,-3l-1 -1c2,0 4,-1 6,-2zm-4 5c2,0 2,1 3,1 -1,0 -1,0 -3,1l0 -2zm-3 -3l4 8c0,0 -1,0 -1,0l-2 0 -3 -8 1 0c0,0 1,0 1,0zm-15 0c-1,0 -1,1 -3,1l0 -1 3 0zm-3 6l3 6 0 1 -3 -7 0 0zm4 9l14 0 0 0 -14 0 0 0z"/>
  </g>
 </g>
</svg>
