<?xml version="1.0" encoding="UTF-8"?>
<!DOCTYPE svg PUBLIC "-//W3C//DTD SVG 1.1//EN" "http://www.w3.org/Graphics/SVG/1.1/DTD/svg11.dtd">
<!-- Creator: CorelDRAW X6 -->
<svg xmlns="http://www.w3.org/2000/svg" xml:space="preserve" width="11.0068mm" height="11.0066mm" version="1.1" style="shape-rendering:geometricPrecision; text-rendering:geometricPrecision; image-rendering:optimizeQuality; fill-rule:evenodd; clip-rule:evenodd"
viewBox="0 0 50 50"
 xmlns:xlink="http://www.w3.org/1999/xlink">
 <defs>
  <style type="text/css">
   <![CDATA[
    .fil0 {fill:#CDB66F;fill-rule:nonzero}
   ]]>
  </style>
 </defs>
 <g id="Слой_x0020_1">
  <metadata id="CorelCorpID_0Corel-Layer"/>
  <path class="fil0" d="M44 6c-4,-4 -9,-6 -14,-6l0 0c-5,0 -11,2 -15,6l-15 15c0,0 0,1 0,2l9 9c1,0 2,0 2,0l15 -15c2,-2 6,-2 8,0 2,2 2,5 0,7l-15 15c-1,1 -1,2 0,2l9 9c0,0 0,0 1,0 0,0 0,0 0,0l15 -15c8,-8 8,-21 0,-29zm-34 23l-7 -7 3 -3 7 7 -3 3zm14 -14l-10 10 -7 -7 10 -10c3,-4 8,-6 13,-6 4,0 9,2 13,6l-8 7c-3,-3 -8,-3 -11,0zm5 33l-8 -8 4 -3 7 7 -3 4zm14 -15l-10 11 -8 -8 10 -10c3,-3 3,-7 1,-10l7 -8c4,3 5,8 5,13 0,4 -2,9 -5,12z"/>
  <path class="fil0" d="M14 34c-1,0 -2,0 -2,0l-7 7c0,1 -1,1 0,2 0,0 0,0 1,0l4 0 -5 5c-1,1 -1,2 0,2 0,0 0,0 1,0 0,0 0,0 1,0l7 -7c0,0 0,-1 0,-1 0,-1 -1,-1 -1,-1l-4 0 5 -5c0,0 0,-1 0,-2z"/>
 </g>
</svg>
