<?xml version="1.0" encoding="UTF-8"?>
<!DOCTYPE svg PUBLIC "-//W3C//DTD SVG 1.1//EN" "http://www.w3.org/Graphics/SVG/1.1/DTD/svg11.dtd">
<!-- Creator: CorelDRAW X6 -->
<svg xmlns="http://www.w3.org/2000/svg" xml:space="preserve" width="10.1864mm" height="10.1864mm" version="1.1" style="shape-rendering:geometricPrecision; text-rendering:geometricPrecision; image-rendering:optimizeQuality; fill-rule:evenodd; clip-rule:evenodd"
viewBox="0 0 81 81"
 xmlns:xlink="http://www.w3.org/1999/xlink">
 <defs>
  <style type="text/css">
   <![CDATA[
    .fil0 {fill:#03A1C9}
    .fil1 {fill:#FEFEFE;fill-rule:nonzero}
   ]]>
  </style>
 </defs>
 <g id="Слой_x0020_1">
  <metadata id="CorelCorpID_0Corel-Layer"/>
  <g id="_378547952">
   <circle class="fil0" cx="40" cy="40" r="40"/>
   <g>
    <path class="fil1" d="M45 23l0 -3 1 0c0,0 0,0 0,0l0 -2c0,-2 -1,-3 -3,-3l-4 0c-2,0 -4,1 -4,3l0 2c0,0 1,0 1,0l1 0 0 3c-3,0 -6,2 -9,4l-1 -2c-1,0 -2,0 -2,0l-2 2c0,0 0,1 0,1 0,0 0,1 0,1l1 1c-2,4 -4,8 -4,13 0,12 9,21 21,21 11,0 21,-9 21,-21 0,-10 -7,-18 -17,-20zm-8 -5c0,-1 1,-2 2,-2l4 0c1,0 2,1 2,2l0 1 -8 0 0 -1zm1 2l6 0 0 3c-1,-1 -2,-1 -3,-1 -1,0 -2,0 -3,1l0 -3zm-14 8c0,0 0,0 0,0 0,0 0,0 0,0l2 -2c0,0 0,0 0,0l1 1c0,1 -1,2 -2,2l-1 -1zm17 35c-11,0 -20,-9 -20,-20 0,-11 9,-19 20,-19 11,0 19,8 19,19 0,11 -8,20 -19,20z"/>
    <path class="fil1" d="M41 27c-9,0 -16,7 -16,16 0,9 7,16 16,16 9,0 16,-7 16,-16 0,-9 -7,-16 -16,-16zm0 31c-8,0 -15,-7 -15,-15 0,-8 7,-15 15,-15 8,0 15,7 15,15 0,8 -7,15 -15,15z"/>
    <path class="fil1" d="M41 35c0,-1 0,-1 0,-1 0,0 -1,0 -1,1 0,0 -2,8 -2,8 0,1 2,3 3,3 1,0 2,-2 2,-3 0,0 -2,-8 -2,-8zm0 3l0 3c0,0 0,0 0,0 0,0 -1,0 -1,0l1 -3zm0 6c-1,0 -1,0 -1,-1 0,0 0,-1 1,-1 0,0 1,1 1,1 0,1 -1,1 -1,1z"/>
    <path class="fil1" d="M41 53c-1,0 -1,1 -1,1l0 3c0,0 0,0 1,0 0,0 1,0 1,0l0 -3c0,0 -1,-1 -1,-1z"/>
    <path class="fil1" d="M41 33c0,0 1,0 1,-1l0 -2c0,-1 -1,-1 -1,-1 -1,0 -1,0 -1,1l0 2c0,1 0,1 1,1z"/>
    <path class="fil1" d="M33 50l-2 2c0,1 0,1 0,1 0,0 0,0 0,0 0,0 1,0 1,0l2 -2c0,0 0,0 0,-1 -1,0 -1,0 -1,0z"/>
    <path class="fil1" d="M49 36c0,0 0,0 0,0l2 -2c0,0 0,-1 0,-1 0,0 -1,0 -1,0l-2 2c0,0 0,0 0,0 0,1 0,1 1,1z"/>
    <path class="fil1" d="M30 42l-3 0c0,0 0,1 0,1 0,1 0,1 0,1l3 0c0,0 1,0 1,-1 0,0 -1,-1 -1,-1z"/>
    <path class="fil1" d="M54 42l-2 0c-1,0 -1,1 -1,1 0,1 0,1 1,1l2 0c1,0 1,0 1,-1 0,0 0,-1 -1,-1z"/>
    <path class="fil1" d="M33 36c0,0 0,0 0,0l0 0c0,0 1,0 1,-1 0,0 0,0 0,0l-2 -2c-1,0 -1,0 -1,0 0,0 0,1 0,1l2 2z"/>
    <path class="fil1" d="M49 50c0,0 -1,0 -1,0 0,1 0,1 0,1l2 2c0,0 0,0 0,0 1,0 1,0 1,0 0,0 0,0 0,-1l-2 -2z"/>
   </g>
  </g>
 </g>
</svg>
