<?xml version="1.0" encoding="UTF-8"?>
<!DOCTYPE svg PUBLIC "-//W3C//DTD SVG 1.1//EN" "http://www.w3.org/Graphics/SVG/1.1/DTD/svg11.dtd">
<!-- Creator: CorelDRAW X6 -->
<svg xmlns="http://www.w3.org/2000/svg" xml:space="preserve" width="11.0067mm" height="11.0067mm" version="1.1" style="shape-rendering:geometricPrecision; text-rendering:geometricPrecision; image-rendering:optimizeQuality; fill-rule:evenodd; clip-rule:evenodd"
viewBox="0 0 60 60"
 xmlns:xlink="http://www.w3.org/1999/xlink">
 <defs>
  <style type="text/css">
   <![CDATA[
    .fil0 {fill:#CDB66F;fill-rule:nonzero}
   ]]>
  </style>
 </defs>
 <g id="Слой_x0020_1">
  <metadata id="CorelCorpID_0Corel-Layer"/>
  <g id="russia-ruble.eps">
   <path class="fil0" d="M30 0c-16,0 -30,14 -30,30 0,17 14,30 30,30 17,0 30,-13 30,-30 0,-16 -13,-30 -30,-30zm0 57c-15,0 -27,-12 -27,-27 0,-15 12,-27 27,-27 15,0 27,12 27,27 0,15 -12,27 -27,27z"/>
   <path class="fil0" d="M30 5c-14,0 -25,11 -25,25 0,14 11,25 25,25 14,0 25,-11 25,-25 0,-14 -11,-25 -25,-25zm0 49c-13,0 -24,-11 -24,-24 0,-13 11,-24 24,-24 13,0 24,11 24,24 0,13 -11,24 -24,24z"/>
   <polygon class="fil0" points="28,37 26,37 26,40 23,40 23,42 31,42 31,40 28,40 "/>
   <path class="fil0" d="M34 16l-11 0 0 3 3 0 0 9 -3 0 0 4 3 0 0 0 2 0 0 0 6 0c4,0 8,-4 8,-8 0,-5 -4,-8 -8,-8zm0 12l-6 0 0 -9 6 0c2,0 4,2 4,5 0,2 -2,4 -4,4z"/>
   <polygon class="fil0" points="23,36 37,36 37,33 23,33 "/>
  </g>
 </g>
</svg>
