<?xml version="1.0" encoding="UTF-8"?>
<!DOCTYPE svg PUBLIC "-//W3C//DTD SVG 1.1//EN" "http://www.w3.org/Graphics/SVG/1.1/DTD/svg11.dtd">
<!-- Creator: CorelDRAW X6 -->
<svg xmlns="http://www.w3.org/2000/svg" xml:space="preserve" width="11.0067mm" height="11.0067mm" version="1.1" style="shape-rendering:geometricPrecision; text-rendering:geometricPrecision; image-rendering:optimizeQuality; fill-rule:evenodd; clip-rule:evenodd"
viewBox="0 0 70 70"
 xmlns:xlink="http://www.w3.org/1999/xlink">
 <defs>
  <style type="text/css">
   <![CDATA[
    .fil0 {fill:#CDB66F}
   ]]>
  </style>
 </defs>
 <g id="Слой_x0020_1">
  <metadata id="CorelCorpID_0Corel-Layer"/>
  <path class="fil0" d="M29 70l12 0 29 0c0,-7 -1,-11 -8,-15 -1,-1 -2,-2 -3,-2 0,0 0,0 0,0 0,0 0,0 0,-1 1,-1 2,-2 3,-2 0,0 0,-1 0,-1 0,0 0,-1 -2,-1 -1,-1 -5,-2 -6,-3 -2,-1 -3,0 -3,0 0,0 0,0 -2,2 -1,2 -3,5 -6,9 -2,3 -5,7 -6,9 -1,2 -1,3 -1,3l-1 0c0,0 0,-1 -1,-3 -2,-2 -4,-6 -6,-9 -3,-4 -5,-7 -6,-9 -2,-2 -2,-2 -2,-2 -1,0 -1,-1 -3,0 -2,1 -5,2 -7,3 -1,0 -1,1 -1,1 0,0 0,1 0,1 1,0 1,1 3,2l0 1c0,0 0,0 -1,0 -1,0 -2,1 -3,2 -6,4 -8,8 -8,15l29 0zm-11 -57c1,-1 1,-2 2,-3 1,-2 2,-4 3,-5 1,-1 1,-2 2,-3 1,-1 2,-2 3,-2 2,0 3,0 4,0 1,0 1,1 2,1 0,1 1,1 1,1 0,0 1,0 1,0 1,0 2,-1 3,-1 0,-1 1,-1 2,-1 1,0 2,0 3,1 1,0 1,1 2,2 1,1 2,3 3,5 1,1 1,2 2,3 0,1 1,2 1,2 0,1 0,1 1,1 1,0 3,0 4,1 2,0 4,1 5,2 1,0 2,1 2,1 1,1 1,2 0,3 -1,1 -2,2 -4,2 -2,1 -4,1 -6,2l0 0c0,0 0,0 1,0 0,1 0,1 1,2 0,1 0,3 0,4 0,1 0,3 -1,4 0,1 0,2 -1,3 -1,0 -2,0 -2,0 0,1 0,1 -1,1 0,1 0,2 -1,3 0,1 -1,3 -2,4 -2,2 -4,4 -5,5 -2,1 -3,2 -5,2 -2,0 -4,0 -6,0 -2,0 -3,-1 -4,-2 -2,-1 -3,-2 -4,-4 -1,-1 -2,-3 -3,-4 -1,-2 -2,-3 -2,-3 0,-1 -1,-1 -1,-2 0,0 0,0 0,0 0,0 -1,0 -1,0 -1,-1 -1,-1 -2,-2 0,-1 0,-2 0,-4 -1,-1 -1,-2 0,-3 0,-1 0,-2 0,-2 1,-1 1,-1 2,-2 -1,0 -1,0 -2,0 -2,0 -4,-1 -5,-1 -2,-1 -3,-2 -4,-3 0,-1 -1,-2 0,-2 0,-1 0,-2 1,-2 2,-1 3,-1 5,-2 1,0 3,-1 4,-1 1,0 2,0 2,-1zm32 12c-1,0 -1,1 -2,1 0,0 0,0 1,1 0,4 -1,8 -5,9 -3,0 -7,-1 -8,-4 -1,0 -1,-1 -1,-1 0,0 0,1 0,1 -1,3 -5,4 -8,4 -5,-1 -6,-5 -5,-9 0,0 0,-1 0,-1 0,0 -1,0 -1,0 -1,0 -1,0 -1,0 0,0 -1,1 -1,1 -1,1 -1,1 -1,2 -1,0 -1,1 -1,2 0,1 0,2 0,2 0,1 1,2 1,2 1,1 1,1 2,1 0,0 1,0 1,0 0,1 0,1 1,3 0,1 1,3 2,4 1,2 2,3 3,4 1,1 2,2 3,2 0,1 1,1 2,1 2,0 4,0 5,0 1,0 2,0 4,-1 1,-1 2,-2 3,-3 1,-1 2,-2 3,-4 1,-1 2,-2 2,-3 0,-1 1,-2 1,-3 0,0 0,-1 0,-1 1,0 1,0 2,0 0,0 1,-1 1,-1 0,-1 1,-2 1,-3 0,0 0,-1 -1,-2 0,-1 -1,-2 -2,-2 0,-1 -1,-1 -1,-2zm-15 1l0 0c0,0 0,0 0,1 0,-1 0,-1 0,-1zm-18 -9c1,0 1,1 1,2 0,0 0,0 1,0 0,0 1,0 1,0 0,0 0,-1 1,-2 0,0 0,-1 0,-2 0,0 0,0 0,0 0,0 1,0 1,1 1,0 2,0 3,1 2,0 4,1 6,1 2,0 5,0 7,0 3,0 5,-1 7,-1 2,-1 3,-1 4,-2 1,0 1,0 1,0 0,1 0,2 0,2 0,1 0,1 0,2 1,0 1,0 1,0 1,0 1,0 2,0 0,-1 0,-2 0,-2 0,0 0,0 0,0 0,0 1,0 2,0 1,0 2,0 3,1 1,0 2,0 3,1 0,0 1,0 0,1 0,0 -1,1 -2,1 -1,1 -3,1 -6,2 -2,0 -5,1 -9,1 -5,0 -11,0 -15,0 -4,0 -7,0 -9,-1 -2,0 -4,0 -6,-1 -1,0 -3,-1 -4,-1 -1,0 -1,-1 -1,-1 0,0 0,-1 0,-1 0,0 1,-1 2,-1 1,0 3,-1 4,-1 1,0 1,0 1,0 1,0 1,0 1,0 0,0 0,0 0,0zm5 -6c0,0 0,1 1,1 0,1 1,1 2,2 1,0 2,0 4,1 3,0 7,0 9,0 3,0 4,0 6,-1 1,0 2,-1 3,-1 1,-1 1,-1 1,-1 0,-1 0,-2 -1,-3 0,-1 -1,-2 -2,-3 -1,-1 -2,-2 -2,-2 -1,-1 -1,-1 -2,-1 -1,0 -1,0 -2,0 -1,1 -1,1 -2,2 0,0 -1,1 -1,1 0,0 -1,0 -1,0 0,0 -1,0 -1,0 0,0 -1,-1 -1,-1 0,-1 -1,-1 -1,-1 -1,-1 -1,-1 -2,-1 0,0 -1,0 -2,0 0,1 -1,1 -2,2 -1,1 -2,2 -2,3 -1,1 -2,2 -2,3zm23 17c1,1 1,2 1,3 0,3 -8,2 -9,0 0,-1 0,-2 0,-2 0,-1 0,-1 0,-2 0,0 1,0 2,0 1,0 2,0 3,0 2,0 2,0 3,0 0,0 0,0 0,1zm-20 0c0,1 0,2 0,3 0,3 7,2 8,0 0,-1 1,-2 1,-2 0,-1 0,-1 0,-2 -1,0 -1,0 -2,0 -1,0 -3,0 -4,0 -1,0 -2,0 -2,0 -1,0 -1,0 -1,1zm32 27c0,0 0,0 1,0 5,3 9,6 10,13l-27 0 -1 0c0,0 0,0 1,0 2,-1 4,-3 6,-4 1,-1 2,-2 2,-2 1,-1 1,-2 1,-3 0,0 0,0 0,0 0,0 1,0 2,0 0,0 1,0 2,-2 1,0 2,-1 3,-2zm-26 13l-2 0 -26 0c0,-7 4,-10 9,-13 1,0 2,0 2,-1 1,1 2,3 3,3 1,2 1,2 2,2 1,0 1,0 2,0 0,0 0,0 0,0 0,1 0,2 0,3 1,0 1,1 3,2 2,1 4,3 6,4 0,0 1,0 1,0zm-11 -18c-2,-2 -2,-2 -3,-2 -1,0 -2,1 -3,1 -1,1 -1,1 -1,1 0,1 1,1 2,2 1,1 2,2 3,3 1,1 2,1 3,1 1,0 1,1 2,1 0,0 0,0 0,1 0,1 1,1 1,2 0,1 1,1 2,2 1,1 2,2 3,2 1,1 1,1 1,0 0,0 0,-1 -2,-4 -2,-2 -6,-7 -8,-10zm30 0c2,-2 3,-2 4,-2 1,0 2,1 3,1 1,1 1,1 1,1 -1,1 -1,1 -2,2 -1,1 -2,2 -4,3 -1,1 -1,1 -2,1 -1,0 -2,1 -2,1 0,0 0,0 -1,1 0,1 0,1 0,2 -1,1 -1,1 -2,2 -1,1 -2,2 -3,2 -1,1 -1,1 -1,0 0,0 0,-1 2,-4 2,-2 6,-7 7,-10z"/>
 </g>
</svg>
