<?xml version="1.0" encoding="UTF-8"?>
<!DOCTYPE svg PUBLIC "-//W3C//DTD SVG 1.1//EN" "http://www.w3.org/Graphics/SVG/1.1/DTD/svg11.dtd">
<!-- Creator: CorelDRAW X6 -->
<svg xmlns="http://www.w3.org/2000/svg" xml:space="preserve" width="11.8534mm" height="11.8346mm" version="1.1" style="shape-rendering:geometricPrecision; text-rendering:geometricPrecision; image-rendering:optimizeQuality; fill-rule:evenodd; clip-rule:evenodd"
viewBox="0 0 56 56"
 xmlns:xlink="http://www.w3.org/1999/xlink">
 <defs>
  <style type="text/css">
   <![CDATA[
    .fil1 {fill:#2B2A29}
    .fil0 {fill:black;fill-rule:nonzero}
   ]]>
  </style>
 </defs>
 <g id="Слой_x0020_1">
  <metadata id="CorelCorpID_0Corel-Layer"/>
  <g id="_378888752">
   <path class="fil0" d="M38 23c0,1 0,2 1,3 0,1 1,1 1,1 0,0 1,1 1,1 0,0 0,1 1,1 0,1 1,1 2,1 0,0 1,0 1,-1l8 -7c1,-1 1,-3 0,-4 0,0 -1,-1 -1,-1 -1,0 -1,0 -1,-1 0,0 -1,-1 -1,-1 -1,-1 -2,-1 -3,0l-8 -8c0,-1 0,-3 0,-3 -1,-1 -1,-1 -2,-1 0,0 0,-1 -1,-1 0,-1 0,-1 0,-1 -1,-1 -3,-1 -4,0l-7 7c-1,1 -1,3 -1,4 1,0 1,0 2,1 0,0 1,0 1,1 0,0 0,0 0,1 1,0 2,0 2,0 1,0 1,0 1,0l3 2 -21 22c-1,0 -1,1 -1,2l0 0c0,0 0,1 1,1 0,1 1,1 1,1 1,0 2,0 2,-1l22 -21 1 2zm5 -7c0,0 0,0 1,0 0,0 0,0 0,0 0,0 0,-1 0,-1l-5 -5c-1,-1 -1,-1 -1,0 -1,0 -1,0 0,0l5 6zm13 27c0,0 0,-1 0,-1l-2 -3 0 -2c0,0 -1,0 -1,0l-19 0c0,0 0,0 0,0l0 2 -3 3c0,0 0,1 0,1l0 3c0,0 0,0 1,0l24 0c0,0 0,0 0,0l0 -3zm-21 -5l17 0 0 0 -17 0 0 0zm0 2l18 0 1 2 -21 0 2 -2zm-3 5l0 -2 23 0 0 2 -23 0zm20 -26c0,0 0,1 0,2l-8 7c0,1 -1,1 -1,0 -1,0 -1,0 -1,0 0,-1 0,-1 0,-1l9 -9c0,0 0,0 0,1 1,0 1,0 1,0zm-3 -3c0,0 0,0 0,1 1,0 1,0 1,0l-9 9c0,0 0,0 -1,0 0,0 0,-1 0,-1 -1,0 -1,-1 0,-1l7 -8c1,0 1,0 1,0 1,0 1,0 1,0zm-24 -5c0,-1 0,-1 1,-2l7 -7c0,-1 1,-1 1,-1 0,0 1,0 1,1 0,0 0,0 0,0 0,0 0,1 0,1l-8 9c-1,-1 -1,-1 -1,-1 0,0 0,0 -1,0zm3 3c0,0 0,-1 0,-1 0,0 0,0 0,0l8 -9c1,0 1,0 1,0 0,0 0,0 1,0 0,1 0,2 0,2l-8 8c0,0 -1,0 -2,0zm10 -6l8 8 -3 3 -4 3 -8 -8 7 -6zm-23 34c-1,0 -2,0 -3,0 0,-1 0,-2 0,-3l22 -21 2 2 -21 22z"/>
   <path class="fil1" d="M26 5c0,0 1,0 2,0l-2 2 0 0c-13,0 -24,11 -24,24 0,13 11,23 24,23 7,0 13,-3 17,-8l3 0c-5,6 -12,10 -20,10 -15,0 -26,-11 -26,-25 0,-15 11,-26 26,-26z"/>
  </g>
 </g>
</svg>
