<?xml version="1.0" encoding="UTF-8"?>
<!DOCTYPE svg PUBLIC "-//W3C//DTD SVG 1.1//EN" "http://www.w3.org/Graphics/SVG/1.1/DTD/svg11.dtd">
<!-- Creator: CorelDRAW X6 -->
<svg xmlns="http://www.w3.org/2000/svg" xml:space="preserve" width="13.3235mm" height="11.8532mm" version="1.1" style="shape-rendering:geometricPrecision; text-rendering:geometricPrecision; image-rendering:optimizeQuality; fill-rule:evenodd; clip-rule:evenodd"
viewBox="0 0 63 56"
 xmlns:xlink="http://www.w3.org/1999/xlink">
 <defs>
  <style type="text/css">
   <![CDATA[
    .fil0 {fill:#2B2A29}
    .fil1 {fill:#2B2A29;fill-rule:nonzero}
   ]]>
  </style>
 </defs>
 <g id="Слой_x0020_1">
  <metadata id="CorelCorpID_0Corel-Layer"/>
  <g id="_378890192">
   <path class="fil0" d="M28 0c4,0 8,1 12,3l-3 1c-3,-1 -6,-2 -9,-2 -14,0 -26,12 -26,26 0,14 12,26 26,26 12,0 23,-9 25,-21 0,0 0,0 1,0l2 -2c-2,14 -14,25 -28,25 -16,0 -28,-13 -28,-28 0,-16 12,-28 28,-28z"/>
   <path class="fil1" d="M51 20c0,0 0,0 0,0 0,0 0,0 0,0 0,0 0,0 0,0 0,0 0,0 0,0 0,0 0,-1 0,-1 0,0 0,0 0,0 0,0 0,0 0,0 0,0 0,0 0,0 0,0 0,0 0,0 0,0 0,0 0,0 0,0 -1,0 -1,0 0,0 0,0 0,0 0,0 0,0 0,0 0,0 0,0 0,0 0,0 0,0 0,0l-17 -10 10 -6 16 9 -7 5c0,0 0,1 0,1 0,1 1,1 2,1l8 -6c1,0 1,0 1,-1 0,0 -1,0 -1,-1l-18 -10c-1,0 -1,0 -2,0l-12 7c0,0 0,0 0,0l-6 4c0,0 0,0 0,0l-11 8c-1,0 -1,0 -1,1 0,0 0,0 1,1l18 10c0,0 1,0 1,0 0,0 0,0 0,0l9 -5c0,0 1,-1 0,-2 0,0 -1,0 -1,0l-8 5 -17 -9 10 -7 18 10 0 13c0,1 0,1 0,1 0,1 0,1 1,1 0,0 0,0 0,-1l6 -3c1,-1 1,-1 1,-1l0 -14c0,0 0,0 0,0 0,0 0,0 0,0zm-11 19l-8 5 -18 -11c-1,0 -2,0 -2,1 0,0 0,1 1,1l18 11c0,0 1,0 1,0 0,0 0,0 0,0l9 -5c0,-1 1,-1 0,-2 0,0 -1,-1 -1,0zm21 -14l-9 6c0,0 0,1 0,1 0,1 1,1 1,1 0,0 0,0 1,0l8 -6c1,0 1,-1 1,-1 -1,-1 -2,-1 -2,-1zm-21 9l-8 5 -18 -10c-1,0 -2,0 -2,0 0,1 0,2 1,2l18 10c0,1 1,1 1,1 0,0 0,0 0,-1l9 -5c0,0 1,-1 0,-2 0,0 -1,0 -1,0zm21 -13l-9 5c0,0 0,1 0,2 0,0 1,0 1,0 0,0 0,0 1,0l8 -5c1,-1 1,-1 1,-2 -1,-1 -2,-1 -2,0zm-21 8l-8 5 -18 -10c-1,0 -2,0 -2,1 0,0 0,1 1,1l18 11c0,0 1,0 1,0 0,0 0,0 0,0l9 -6c0,0 1,-1 0,-1 0,-1 -1,-1 -1,-1zm21 -13l-9 5c0,1 0,1 0,2 0,0 1,1 1,1 0,0 0,-1 1,-1l8 -5c1,0 1,-1 1,-2 -1,0 -2,0 -2,0zm-16 19l0 -11c0,-1 0,-1 -1,-1l-17 -10 4 -2 16 9 -1 1c-1,0 -1,1 0,1 0,1 0,1 1,1 0,0 0,0 0,0l1 -1 0 11 -3 2z"/>
  </g>
 </g>
</svg>
