<?xml version="1.0" encoding="UTF-8"?>
<!DOCTYPE svg PUBLIC "-//W3C//DTD SVG 1.1//EN" "http://www.w3.org/Graphics/SVG/1.1/DTD/svg11.dtd">
<!-- Creator: CorelDRAW X6 -->
<svg xmlns="http://www.w3.org/2000/svg" xml:space="preserve" width="10.1864mm" height="10.1864mm" version="1.1" style="shape-rendering:geometricPrecision; text-rendering:geometricPrecision; image-rendering:optimizeQuality; fill-rule:evenodd; clip-rule:evenodd"
viewBox="0 0 62 62"
 xmlns:xlink="http://www.w3.org/1999/xlink">
 <defs>
  <style type="text/css">
   <![CDATA[
    .fil0 {fill:#03A1C9}
    .fil1 {fill:#FEFEFE;fill-rule:nonzero}
   ]]>
  </style>
 </defs>
 <g id="Слой_x0020_1">
  <metadata id="CorelCorpID_0Corel-Layer"/>
  <g id="_378568312">
   <circle class="fil0" cx="31" cy="31" r="31"/>
   <g>
    <path class="fil1" d="M51 19c0,0 0,0 -1,0l-3 1c-1,0 -2,0 -3,1l0 0c-1,2 -2,4 -4,5 0,0 -1,1 -1,1l-5 5c-1,1 -2,1 -3,0 0,0 0,-1 0,-1 0,0 0,-1 0,-1l4 -4c1,-1 2,-3 1,-5 -1,-1 -2,-2 -4,-2 0,0 0,0 0,0 -1,1 -2,1 -3,2l-2 2c0,1 -1,1 -1,2l0 2 -2 2 0 -7c0,0 0,0 0,0l8 -8c1,-1 1,-1 2,-1l9 0c1,0 1,0 1,-1 0,0 0,0 -1,0l-9 0c-1,0 -2,0 -3,1 0,0 0,0 0,0l-8 8c0,0 0,1 0,1l0 8 -11 11c0,0 0,0 0,0 0,1 0,1 0,1l9 9c0,0 0,0 0,0 0,0 1,0 1,0l18 -19c0,0 0,0 0,0l-2 -3 2 -1c0,0 0,-1 1,-1 2,-2 3,-3 4,-5l0 0c1,-1 1,-1 2,-1l3 -1c1,0 1,0 1,-1zm-20 10c-1,1 -1,1 -1,2 0,1 0,1 1,2 0,0 1,1 2,1 0,0 1,0 1,-1 0,0 0,0 0,0l2 -1 1 0 -15 15 -7 -6 15 -15 2 2 -1 1zm-1 -8c1,0 1,0 2,0 0,0 0,0 0,0 1,0 2,0 3,1 1,1 0,3 -1,3l0 1 -3 -4c0,0 0,0 -1,0l-1 2 0 -2 1 -1zm-3 4c0,0 1,-1 1,-1l0 -1 0 2 -1 1 0 -1zm12 7l-18 18 -8 -9 18 -17 2 2 0 1 -2 -2c0,0 -1,0 -1,0l-16 16c0,0 0,0 0,1l7 6c0,0 0,1 1,1 0,0 0,-1 0,-1l16 -15c0,-1 0,-1 0,-1l-1 -1 0 -1 2 2z"/>
    <path class="fil1" d="M28 35c-2,-2 -4,-2 -5,-1 -1,1 0,3 1,4 1,1 2,2 3,2 1,0 1,0 2,-1 0,0 0,-1 0,-2 0,-1 0,-1 -1,-2zm0 4c0,0 -2,0 -3,-1 -1,-1 -1,-3 -1,-3 0,0 0,-1 1,-1 0,0 1,1 2,2 1,0 1,1 1,1 0,1 0,1 0,2z"/>
   </g>
  </g>
 </g>
</svg>
