<?xml version="1.0" encoding="UTF-8"?>
<!DOCTYPE svg PUBLIC "-//W3C//DTD SVG 1.1//EN" "http://www.w3.org/Graphics/SVG/1.1/DTD/svg11.dtd">
<!-- Creator: CorelDRAW X6 -->
<?xml-stylesheet href="icon_1.css" type="text/css"?>
<svg xmlns="http://www.w3.org/2000/svg" xml:space="preserve" width="11.0068mm" height="10.5538mm" version="1.1" style="shape-rendering:geometricPrecision; text-rendering:geometricPrecision; image-rendering:optimizeQuality; fill-rule:evenodd; clip-rule:evenodd"
viewBox="0 0 43 41"
 xmlns:xlink="http://www.w3.org/1999/xlink">
 <g id="Слой_x0020_1">
  <metadata id="CorelCorpID_0Corel-Layer"/>
  <g id="_379258104">
   <path class="fil0" d="M42 33c-2,-1 -5,-2 -8,-2l0 -12c0,-1 0,-1 0,-1l-2 -1 0 -4c0,0 0,0 0,0l-3 -1 0 -4c0,0 0,0 0,0l-2 -1 0 -3c0,-1 -1,-1 -1,-1l-4 -2c-1,0 -1,0 -1,0l-5 2c0,0 0,0 0,1l0 3 -2 1c-1,0 -1,0 -1,0l0 4 -2 1c0,0 -1,0 -1,0l0 4 -1 1c0,0 -1,0 -1,1l0 12c-2,0 -5,1 -8,2 0,0 0,0 0,0 0,1 0,1 1,1 7,-2 13,-3 21,-3 7,0 13,1 20,3 0,0 0,0 0,0 0,0 1,0 1,-1 0,0 0,0 -1,0zm-9 -14l0 12c0,0 0,0 -1,0l0 -12 1 0zm-2 -5l0 16c0,0 -1,0 -2,0l0 0 0 -1 0 -1 0 -1 0 -1 0 -1 0 -1 0 0 0 -1 0 -1 0 -1 0 -1 0 -1 0 0 0 -2 0 0 0 -1 0 -1 0 -1 0 0 0 -1 2 1zm-3 -6l0 22c0,0 -1,0 -1,0l0 -1 0 -1 0 -1 0 -1 0 -1 0 0 0 -2 0 0 0 -1 0 -1 0 -1 0 -1 0 -1 0 -1 0 -1 0 -1 0 -1 0 0 0 -2 0 0 0 -1 0 -1 0 -1 0 -1 0 0 1 0zm-2 22c-2,0 -3,0 -4,0l0 -27 4 1 0 26zm-5 -27l0 27c-1,0 -3,0 -4,0l0 -26 4 -1zm-5 5l0 1 0 0 0 1 0 1 0 1 0 0 0 2 0 0 0 1 0 1 0 1 0 1 0 1 0 1 0 1 0 1 0 1 0 0 0 2 0 0 0 1 0 1 0 1 0 1 0 1c-1,0 -1,0 -2,0l0 -22 2 0zm-3 5l0 1 0 0 0 1 0 1 0 1 0 0 0 2 0 0 0 1 0 1 0 1 0 1 0 1 0 0 0 1 0 1 0 1 0 1 0 1 0 1 0 0c0,0 -1,0 -2,0l0 -16 2 -1zm-4 6l1 0 0 12c0,0 0,0 -1,0l0 -12z"/>
   <path class="fil1" d="M13 31c1,0 2,1 3,2 0,0 1,1 1,2 0,1 0,2 -1,3 0,1 -1,2 -2,2 0,0 0,0 0,1 0,0 0,0 0,0 0,0 0,0 0,0 2,-1 4,-3 3,-6 0,-2 -1,-3 -2,-4l-2 0zm7 0c1,0 2,0 2,1 1,0 2,1 2,2 1,2 2,4 1,7 0,0 0,0 0,0 0,0 0,0 0,0 1,0 1,0 1,0 0,-3 0,-5 -1,-8 -1,-1 -2,-2 -3,-2l-2 0z"/>
   <path class="fil1" d="M18 5c0,0 0,0 0,0 0,0 0,0 0,0l2 -1c0,0 0,0 0,0 0,0 0,0 0,1l-2 0c0,0 0,0 0,0zm2 22c0,0 0,0 0,0 0,1 0,1 0,1l-2 1c0,0 0,0 0,0 0,0 0,0 0,-1 0,0 0,0 0,0l2 -1zm0 -2c0,0 0,0 0,0 0,0 0,1 0,1l-2 0c0,0 0,0 0,0 0,0 0,0 0,0 0,0 0,0 0,0l2 -1zm0 -2c0,0 0,0 0,0 0,0 0,0 0,0l-2 1c0,0 0,0 0,0 0,0 0,0 0,0 0,0 0,-1 0,-1l2 0zm0 -3c0,0 0,0 0,0 0,1 0,1 0,1l-2 1c0,0 0,0 0,0 0,0 0,0 0,-1 0,0 0,0 0,0l2 -1zm0 -7c0,0 0,0 0,0 0,1 0,1 0,1l-2 1c0,0 0,0 0,0 0,0 0,0 0,-1 0,0 0,0 0,0l2 -1zm0 5c0,0 0,0 0,0 0,0 0,1 0,1l-2 0c0,0 0,0 0,0 0,0 0,0 0,0 0,0 0,0 0,0l2 -1zm0 -2c0,0 0,0 0,0 0,0 0,0 0,0l-2 1c0,0 0,0 0,0 0,0 0,0 0,0 0,0 0,-1 0,-1l2 0zm-2 -4c0,0 0,0 0,0 0,0 0,0 0,0l2 -1c0,0 0,0 0,0 0,0 0,0 0,1l-2 0c0,0 0,0 0,0zm0 -2c0,0 0,0 0,0 0,0 0,-1 0,-1l2 0c0,0 0,0 0,0 0,0 0,0 0,0l-2 1c0,0 0,0 0,0zm0 -2c0,0 0,0 0,-1 0,0 0,0 0,0l2 -1c0,0 0,0 0,0 0,1 0,1 0,1l-2 1c0,0 0,0 0,0z"/>
   <path class="fil1" d="M21 37c0,0 0,0 0,0 0,0 0,0 0,0 0,-1 0,-1 0,-2 0,0 0,0 0,0 -1,0 -1,0 -1,0 1,1 1,1 1,2 0,0 0,0 0,0zm0 2c0,0 0,0 0,0 0,0 0,1 0,1 0,0 0,1 0,1 0,0 0,0 0,0 0,0 0,-1 0,-1 0,0 0,0 0,-1 0,0 0,0 0,0zm-1 -6c-1,-1 -1,-1 -2,-2 0,0 0,0 0,0 0,0 0,1 0,1 1,0 1,1 1,1 0,0 1,0 1,0 0,0 0,0 0,0 0,0 0,0 0,0z"/>
   <path class="fil1" d="M35 8c0,0 1,0 2,0 1,0 2,0 2,1 1,0 2,1 2,2 0,0 0,0 0,0l0 0 0 0c0,1 -1,1 -1,1l-7 0c-1,0 -1,0 -1,-1 0,0 0,0 0,0 0,-2 1,-3 2,-3 0,0 1,0 1,0zm-2 4l7 0c0,0 0,-1 0,-1l0 0c0,0 0,0 0,0 0,-1 0,-2 -1,-2 0,-1 -1,-1 -2,-1 -1,0 -2,0 -2,1 0,0 -1,0 -1,0 -1,0 -2,1 -2,2 0,0 0,0 0,0 0,1 0,1 1,1z"/>
   <path class="fil1" d="M6 1c1,-1 2,-1 3,-1 1,0 3,1 3,2 2,0 2,1 2,3 0,0 0,0 0,0l0 0c0,0 0,1 0,1l-11 0c0,0 -1,-1 -1,-1 0,0 0,-1 0,-1 0,-2 2,-3 3,-3 1,0 1,0 1,0zm-3 4l11 0c0,0 0,0 0,0l0 0c0,0 0,0 0,0 0,-2 -1,-3 -2,-3 0,-1 -2,-2 -3,-2 -1,0 -2,1 -2,2 -1,-1 -1,-1 -2,-1 -1,0 -3,2 -3,3 0,0 0,1 1,1 0,0 0,0 0,0z"/>
   <path class="fil1" d="M25 5c0,0 0,0 0,0 0,0 0,0 0,0l-2 -1c0,0 -1,0 -1,0 0,0 0,0 1,1l2 0c0,0 0,0 0,0zm-2 22c0,0 -1,0 -1,0 0,1 0,1 1,1l2 1c0,0 0,0 0,0 0,0 0,0 0,-1 0,0 0,0 0,0l-2 -1zm0 -2c0,0 -1,0 -1,0 0,0 0,1 1,1l2 0c0,0 0,0 0,0 0,0 0,0 0,0 0,0 0,0 0,0l-2 -1zm0 -2c0,0 -1,0 -1,0 0,0 0,0 1,0l2 1c0,0 0,0 0,0 0,0 0,0 0,0 0,0 0,-1 0,-1l-2 0zm0 -3c0,0 -1,0 -1,0 0,1 0,1 1,1l2 1c0,0 0,0 0,0 0,0 0,0 0,-1 0,0 0,0 0,0l-2 -1zm0 -7c0,0 -1,0 -1,0 0,1 0,1 1,1l2 1c0,0 0,0 0,0 0,0 0,0 0,-1 0,0 0,0 0,0l-2 -1zm0 5c0,0 -1,0 -1,0 0,0 0,1 1,1l2 0c0,0 0,0 0,0 0,0 0,0 0,0 0,0 0,0 0,0l-2 -1zm0 -2c0,0 -1,0 -1,0 0,0 0,0 1,0l2 1c0,0 0,0 0,0 0,0 0,0 0,0 0,0 0,-1 0,-1l-2 0zm2 -4c0,0 0,0 0,0 0,0 0,0 0,0l-2 -1c0,0 -1,0 -1,0 0,0 0,0 1,1l2 0c0,0 0,0 0,0zm0 -2c0,0 0,0 0,0 0,0 0,-1 0,-1l-2 0c0,0 -1,0 -1,0 0,0 0,0 1,0l2 1c0,0 0,0 0,0zm0 -2c0,0 0,0 0,-1 0,0 0,0 0,0l-2 -1c0,0 -1,0 -1,0 0,1 0,1 1,1l2 1c0,0 0,0 0,0z"/>
   <path class="fil1" d="M27 28l1 1c0,0 0,0 0,0 0,0 0,0 0,-1 0,0 0,0 0,0l-1 0 0 0zm0 -2l1 0c0,0 0,0 0,0 0,0 0,0 0,0 0,0 0,0 0,0l-1 -1 0 1zm0 -2l1 0c0,0 0,0 0,0 0,0 0,0 0,0 0,0 0,-1 0,-1l-1 0 0 1zm0 -3l1 1c0,0 0,0 0,0 0,0 0,0 0,-1 0,0 0,0 0,0l-1 0 0 0zm0 -7l1 1c0,0 0,0 0,0 0,0 0,0 0,-1 0,0 0,0 0,0l-1 0 0 0zm0 5l1 0c0,0 0,0 0,0 0,0 0,0 0,0 0,0 0,0 0,0l-1 -1 0 1zm0 -2l1 0c0,0 0,0 0,0 0,0 0,0 0,0 0,0 0,-1 0,-1l-1 0 0 1zm1 -5c0,0 0,0 0,0 0,0 0,0 0,0l-1 -1 0 1 1 0c0,0 0,0 0,0zm0 -2c0,0 0,0 0,0 0,0 0,-1 0,-1l-1 0 0 1 1 0c0,0 0,0 0,0z"/>
   <path class="fil1" d="M29 29l1 1c0,0 0,0 0,0 1,0 1,-1 1,-1 0,0 0,0 0,0l-2 -1 0 1zm0 -2l1 0c0,0 0,0 0,0 1,0 1,0 1,0 0,0 0,0 0,0l-2 -1 0 1zm0 -2l1 0c0,0 0,0 0,0 1,0 1,0 1,0 0,-1 0,-1 0,-1l-2 0 0 1zm0 -3l1 1c0,0 0,0 0,0 1,0 1,-1 1,-1 0,0 0,0 0,0l-2 -1 0 1zm0 -7l1 0c0,1 0,1 0,1 1,0 1,-1 1,-1 0,0 0,0 0,0l-2 -1 0 1zm0 5l1 0c0,0 0,0 0,0 1,0 1,0 1,0 0,0 0,0 0,0l-2 -1 0 1zm0 -3l1 1c0,0 0,0 0,0 1,0 1,0 1,0 0,-1 0,-1 0,-1l-2 0 0 0z"/>
   <path class="fil1" d="M16 28l-1 1c0,0 0,0 0,0 0,0 0,0 0,-1 0,0 0,0 0,0l1 0 0 0zm0 -2l-1 0c0,0 0,0 0,0 0,0 0,0 0,0 0,0 0,0 0,0l1 -1 0 1zm0 -2l-1 0c0,0 0,0 0,0 0,0 0,0 0,0 0,0 0,-1 0,-1l1 0 0 1zm0 -3l-1 1c0,0 0,0 0,0 0,0 0,0 0,-1 0,0 0,0 0,0l1 0 0 0zm0 -7l-1 1c0,0 0,0 0,0 0,0 0,0 0,-1 0,0 0,0 0,0l1 0 0 0zm0 5l-1 0c0,0 0,0 0,0 0,0 0,0 0,0 0,0 0,0 0,0l1 -1 0 1zm0 -2l-1 0c0,0 0,0 0,0 0,0 0,0 0,0 0,0 0,-1 0,-1l1 0 0 1zm-1 -5c0,0 0,0 0,0 0,0 0,0 0,0l1 -1 0 1 -1 0c0,0 0,0 0,0zm0 -2c0,0 0,0 0,0 0,0 0,-1 0,-1l1 0 0 1 -1 0c0,0 0,0 0,0z"/>
   <path class="fil1" d="M13 29l-1 1c0,0 0,0 0,0 0,0 0,-1 0,-1 0,0 0,0 0,0l1 -1 0 1zm0 -2l-1 0c0,0 0,0 0,0 0,0 0,0 0,0 0,0 0,0 0,0l1 -1 0 1zm0 -2l-1 0c0,0 0,0 0,0 0,0 0,0 0,0 0,-1 0,-1 0,-1l1 0 0 1zm0 -3l-1 1c0,0 0,0 0,0 0,0 0,-1 0,-1 0,0 0,0 0,0l1 -1 0 1zm0 -7l-1 0c0,1 0,1 0,1 0,0 0,-1 0,-1 0,0 0,0 0,0l1 -1 0 1zm0 5l-1 0c0,0 0,0 0,0 0,0 0,0 0,0 0,0 0,0 0,0l1 -1 0 1zm0 -3l-1 1c0,0 0,0 0,0 0,0 0,0 0,0 0,-1 0,-1 0,-1l1 0 0 0z"/>
  </g>
 </g>
</svg>
